<?xml version="1.0" encoding="UTF-8"?>
<svg width="24px" height="24px" viewBox="0 0 24 24" version="1.1" xmlns="http://www.w3.org/2000/svg" xmlns:xlink="http://www.w3.org/1999/xlink">
    <!-- Generator: Sketch 51.3 (57544) - http://www.bohemiancoding.com/sketch -->
    <title>icon-front-lg</title>
    <desc>Created with Sketch.</desc>
    <defs></defs>
    <g id="icon-front-lg" stroke="none" stroke-width="1" fill="none" fill-rule="evenodd">
        <g transform="translate(7.000000, 2.000000)" fill="#000000" fill-rule="nonzero" id="Path">
            <path d="M9.45464458,20 C9.31783894,20.000635 9.18731728,19.942534 9.096114,19.8404021 L0.132849468,10.3642782 C-0.044283156,10.1729837 -0.044283156,9.87728186 0.132849468,9.68598727 L9.096114,0.209863379 C9.20877859,0.0510713683 9.40343847,-0.0274881802 9.59454808,0.0087086433 C9.7856577,0.0449054668 9.93823467,0.189232877 9.98522726,0.378264511 C10.0322199,0.567296145 9.96502613,0.766429989 9.81317517,0.888154352 L1.17856366,10.0251328 L9.81317517,19.1621112 C9.94703243,19.3066364 9.98333474,19.5165696 9.90580199,19.6977643 C9.82826924,19.878959 9.65145157,19.9974112 9.45464458,20 Z" transform="translate(5.000000, 10.000005) scale(-1, 1) translate(-5.000000, -10.000005) "></path>
        </g>
    </g>
</svg>